<svg xmlns="http://www.w3.org/2000/svg" viewBox="0 0 88 88"><title>Artboard-39</title><g id="Bank"><path d="M78,38V35H10v3a1.0029,1.0029,0,0,0,1,1H77A1.0029,1.0029,0,0,0,78,38Z" style="fill:#202021"/><path d="M10,77H78V74a1.0029,1.0029,0,0,0-1-1H11a1.0029,1.0029,0,0,0-1,1Z" style="fill:#202021"/><rect x="5" y="79" width="78" height="8" rx="1" ry="1" style="fill:#202021"/><path d="M28,41H14v3a1.0029,1.0029,0,0,0,1,1H27a1.0029,1.0029,0,0,0,1-1Z" style="fill:#202021"/><path d="M51,41H37v3a1.0029,1.0029,0,0,0,1,1H50a1.0029,1.0029,0,0,0,1-1Z" style="fill:#202021"/><path d="M74,41H60v3a1.0029,1.0029,0,0,0,1,1H73a1.0029,1.0029,0,0,0,1-1Z" style="fill:#202021"/><rect x="17" y="47" width="8" height="18" style="fill:#202021"/><rect x="40" y="47" width="8" height="18" style="fill:#202021"/><rect x="63" y="47" width="8" height="18" style="fill:#202021"/><path d="M14,68v3H28V68a1.0029,1.0029,0,0,0-1-1H15A1.0029,1.0029,0,0,0,14,68Z" style="fill:#202021"/><path d="M37,68v3H51V68a1.0029,1.0029,0,0,0-1-1H38A1.0029,1.0029,0,0,0,37,68Z" style="fill:#202021"/><path d="M60,68v3H74V68a1.0029,1.0029,0,0,0-1-1H61A1.0029,1.0029,0,0,0,60,68Z" style="fill:#202021"/><path d="M44,10a8,8,0,1,0,8,8A8.0092,8.0092,0,0,0,44,10Zm-.5273,6.6182,1.9492.9746A2.8436,2.8436,0,0,1,45,22.8549V23a1,1,0,0,1-2,0v-.1451a2.8484,2.8484,0,0,1-2-2.7094,1,1,0,0,1,2,0A.8561.8561,0,0,0,43.8545,21h.291a.854.854,0,0,0,.3818-1.6182l-1.9492-.9746A2.8436,2.8436,0,0,1,43,13.1451V13a1,1,0,0,1,2,0v.1451a2.8484,2.8484,0,0,1,2,2.7094,1,1,0,1,1-2,0A.8561.8561,0,0,0,44.1455,15h-.291a.854.854,0,0,0-.3818,1.6182Z" style="fill:#202021"/><path d="M82.4658,21.1152l-38-20a.9953.9953,0,0,0-.9316,0l-38,20A1.0008,1.0008,0,0,0,5,22V32a1,1,0,0,0,1,1H82a1,1,0,0,0,1-1V22A1.0008,1.0008,0,0,0,82.4658,21.1152ZM44,28A10,10,0,1,1,54,18,10.0117,10.0117,0,0,1,44,28Z" style="fill:#202021"/></g></svg>