<svg xmlns="http://www.w3.org/2000/svg" viewBox="0 0 88 88"><title>Artboard-13</title><g id="Credit_Card" data-name="Credit Card"><path d="M81,28H78V61a3.0088,3.0088,0,0,1-3,3H12v3a1.0029,1.0029,0,0,0,1,1H81a1.0029,1.0029,0,0,0,1-1V29A1.0029,1.0029,0,0,0,81,28Z" style="fill:#202021"/><path d="M76,21a1,1,0,0,0-1-1H7a1,1,0,0,0-1,1v5H76Z" style="fill:#202021"/><rect x="6" y="28" width="70" height="4" style="fill:#202021"/><path d="M61.8965,49.1372A2.97,2.97,0,0,0,61,49a3,3,0,0,0,0,6,2.97,2.97,0,0,0,.8965-.1372,5.0192,5.0192,0,0,1,0-5.7256Z" style="fill:#202021"/><path d="M76,61V34H6V61a1,1,0,0,0,1,1H75A1,1,0,0,0,76,61ZM28,55H12a1,1,0,0,1,0-2H28a1,1,0,0,1,0,2Zm0-4H12a1,1,0,0,1,0-2H28a1,1,0,0,1,0,2Zm5,0H31a1,1,0,0,1,0-2h2a1,1,0,0,1,0,2Zm33,6a4.9417,4.9417,0,0,1-2.4887-.69,5,5,0,1,1,0-8.621A4.9417,4.9417,0,0,1,66,47a5,5,0,0,1,0,10Z" style="fill:#202021"/><circle cx="66" cy="52" r="3" style="fill:#202021"/></g></svg>