<svg xmlns="http://www.w3.org/2000/svg" viewBox="0 0 48 48"><title>06-gift voucher</title><g id="_06-gift_voucher" data-name="06-gift voucher"><polygon points="30 34 27 37 28 42 24 39 20 42 21 37 18 34 22 34 24 30 26 34 30 34" style="fill:#ffce54"/><path d="M47,41.91V46a1,1,0,0,1-1,1H2a1,1,0,0,1-1-1V41.91a1,1,0,0,1,.85-.98,5,5,0,0,0,0-9.86A1,1,0,0,1,1,30.09V26a1,1,0,0,1,1-1H46a1,1,0,0,1,1,1v4.09a1,1,0,0,1-.85.98,5,5,0,0,0,0,9.86A1,1,0,0,1,47,41.91ZM27,37l3-3H26l-2-4-2,4H18l3,3-1,5,4-3,4,3Z" style="fill:#b785ff"/><polygon points="30 21 27.09 17.85 28.49 14.04 24.99 15.65 22 13 22 17 18 19 22 20 23.01 25 23.01 25 25.28 20.79 30 21" style="fill:#ffb844"/><path d="M22,20l-4-1,4-2V13l2.99,2.65,3.5-1.61-1.4,3.81L30,21l-4.72-.21L23.01,25H35.132L46.47,19.62a.921.921,0,0,0,.44-1.23l-1.58-3.45a.91.91,0,0,0-1.08-.49,4.55,4.55,0,0,1-5.34-2.52,4.7,4.7,0,0,1,1.53-5.78.96.96,0,0,0,.33-1.171l-1.58-3.44a.906.906,0,0,0-1.22-.45L1.53,18.38a.921.921,0,0,0-.44,1.23l1.58,3.45a.91.91,0,0,0,1.08.49A4.527,4.527,0,0,1,8.388,25H23.01Z" style="fill:#a672f1"/><polygon points="30 34 27 37 28 42 24 39 20 42 21 37 18 34 22 34 24 30 26 34 30 34" style="fill:#fea740"/><polygon points="22 34 18 34 24 36 22 34" style="fill:#ffce54"/><polygon points="26 34 24 30 24 36 26 34" style="fill:#ffce54"/><polygon points="24 30 22 34 24 36 24 30" style="fill:#ffb844"/><polygon points="30 34 26 34 24 36 30 34" style="fill:#ffb844"/><polygon points="27 37 30 34 24 36 27 37" style="fill:#ff942c"/><polygon points="21 37 20 42 24 36 21 37" style="fill:#fe792c"/><polygon points="24 39 28 42 24 36 24 39" style="fill:#ff942c"/><polygon points="24 36 28 42 27 37 24 36" style="fill:#ffb844"/><polygon points="20 42 24 39 24 36 20 42" style="fill:#fea740"/><polygon points="18 34 21 37 24 36 18 34" style="fill:#ff942c"/><polygon points="25.28 20.79 30 21 27.09 17.85 28.49 14.04 24.99 15.65 22 13 22 17 18 19 22 20 23.01 25 23.01 25 25.28 20.79" style="fill:none"/><polygon points="23.01 25 23.01 25 23.01 25 23.01 25" style="fill:none"/><path d="M46.15,31.07a1,1,0,0,0,.85-.98V26a1,1,0,0,0-1-1H2a1,1,0,0,0-1,1v4.09a1,1,0,0,0,.85.98,5,5,0,0,1,0,9.86,1,1,0,0,0-.85.98V46a1,1,0,0,0,1,1H46a1,1,0,0,0,1-1V41.91a1,1,0,0,0-.85-.98,5,5,0,0,1,0-9.86Zm-.256-1.478-.009,0Zm-43.8,0,.01,0Zm.015,12.819.009,0Zm43.8,0-.01,0ZM40.5,36a6.494,6.494,0,0,0,5,6.326V45.5H2.5V42.327a6.5,6.5,0,0,0,0-12.653V26.5h43v3.173A6.492,6.492,0,0,0,40.5,36Z" style="fill:#ffdf64"/><path d="M45.5,42.326V45.5H2.5V42.327A6.492,6.492,0,0,0,7.5,36H6a4.983,4.983,0,0,1-.082.9,4.952,4.952,0,0,1-.609,1.633,5.027,5.027,0,0,1-1.815,1.8,5,5,0,0,1-1.644.6,1,1,0,0,0-.85.98V46a1,1,0,0,0,1,1H46a1,1,0,0,0,1-1V41.91a1,1,0,0,0-.85-.98A5,5,0,0,1,42,36H40.5A6.494,6.494,0,0,0,45.5,42.326Zm-43.394.082.009,0Zm43.8,0-.01,0Z" style="fill:#ffce54"/><polygon points="26 34 24 30 22 34 18 34 20 36 28 36 30 34 26 34" style="fill:none"/><polygon points="21 37 20 42 24 39 28 42 27 37 28 36 20 36 21 37" style="fill:none"/><path d="M40.5,36H28l-1,1,1,5-4-3-4,3,1-5-1-1H7.5a6.492,6.492,0,0,1-5,6.327V45.5h43V42.326A6.494,6.494,0,0,1,40.5,36Z" style="fill:#a672f1"/><path d="M3.831,21.992l-1.145-2.5L38.073,2.7,39.219,5.2a6.187,6.187,0,0,0-1.673,7.357h0a6.031,6.031,0,0,0,6.623,3.454l1.145,2.5L31.632,25h3.5L46.47,19.62a.921.921,0,0,0,.44-1.23l-1.58-3.45a.91.91,0,0,0-1.08-.49,4.55,4.55,0,0,1-5.34-2.52,4.7,4.7,0,0,1,1.53-5.78.96.96,0,0,0,.33-1.171l-1.58-3.44a.906.906,0,0,0-1.22-.45L1.53,18.38a.921.921,0,0,0-.44,1.23l1.58,3.45a.91.91,0,0,0,1.08.49A4.527,4.527,0,0,1,8.388,25H10.2A6.011,6.011,0,0,0,3.831,21.992Zm42-3.727-.014.006Zm-.27.772-.008-.017ZM38.616,2.443h0Zm-.785-.268,0-.009ZM2.173,19.735l.014-.006Zm.27-.772.008.017Z" style="fill:#ffce54"/><path d="M45.33,14.94a.91.91,0,0,0-1.08-.49,4.536,4.536,0,0,1-5.193-2.264l-1.36.637a6.014,6.014,0,0,0,6.472,3.185l1.145,2.5L31.632,25h3.5L46.47,19.62a.921.921,0,0,0,.44-1.23Zm.219,4.08.008.017Zm.264-.749.014-.006Z" style="fill:#fea740"/><polygon points="30 21 27.09 17.85 27.118 17.775 22.031 20.156 23.01 25 23.01 25 25.28 20.79 30 21" style="fill:#fea740"/><polygon points="23.01 25 23.01 25 23.01 25 23.01 25" style="fill:none"/><path d="M44.169,16.008A6.014,6.014,0,0,1,37.7,12.823L28.4,17.173l-1.286.6-.028.075L30,21l-4.72-.21L23.01,25h8.622l13.682-6.492Z" style="fill:#8b69ff"/><polygon points="20.802 20.731 11.682 25 21.989 25 23.01 25 22.031 20.156 20.802 20.731" style="fill:#8b69ff"/><ellipse cx="37.684" cy="30.695" rx="1.642" ry="2.286" transform="translate(-10.665 35.654) rotate(-45.02)" style="fill:#f6fafd"/><ellipse cx="32.682" cy="29.708" rx="0.825" ry="1.148" transform="translate(-11.434 31.826) rotate(-45.02)" style="fill:#f6fafd"/><ellipse cx="33.682" cy="7.708" rx="0.825" ry="1.148" transform="translate(4.421 26.084) rotate(-45.02)" style="fill:#f6fafd"/><ellipse cx="31.427" cy="9.208" rx="0.413" ry="0.574" transform="translate(2.699 24.929) rotate(-45.02)" style="fill:#f6fafd"/><path d="M30.924,33.617A1,1,0,0,0,30,33H26.618L24.9,29.553a1.042,1.042,0,0,0-1.79,0L21.382,33H18a1,1,0,0,0-.707,1.707l2.621,2.622L19.02,41.8a1,1,0,0,0,1.58,1L24,40.25l3.4,2.55a1,1,0,0,0,1.58-1l-.894-4.475,2.621-2.622A1,1,0,0,0,30.924,33.617Zm-4.631,2.676a1,1,0,0,0-.273.9l.486,2.433L24.6,38.2a1,1,0,0,0-1.2,0l-1.906,1.429L21.98,37.2a1,1,0,0,0-.273-.9L20.414,35H22a1,1,0,0,0,.895-.553L24,32.236l1.105,2.211A1,1,0,0,0,26,35h1.586Z"/><rect x="6" y="24" width="2" height="2"/><path d="M46.318,32.058A2,2,0,0,0,48,30.089V26a2,2,0,0,0-2-2H10v2H46l-.02,4.086A6,6,0,0,0,46,41.911V46H42v2h4a2,2,0,0,0,2-2V41.911a2,2,0,0,0-1.682-1.969,4,4,0,0,1,0-7.884Z"/><path d="M2.02,41.914A6,6,0,0,0,2,30.089V26H4V24H2a2,2,0,0,0-2,2v4.089a2,2,0,0,0,1.682,1.969,4,4,0,0,1,0,7.884A2,2,0,0,0,0,41.911V46a2,2,0,0,0,2,2H40V46H2Z"/><path d="M1.729,23.413l1.818-.833-1.59-3.3L32.429,4.824l-.858-1.806L1.1,17.472a1.938,1.938,0,0,0-.924,2.555Z"/><path d="M38.317,2.032l1.55,3.3A5.681,5.681,0,0,0,38,12.344a5.526,5.526,0,0,0,6.458,3.085l1.584,3.292L41.036,21.1l.858,1.807L46.9,20.528a1.938,1.938,0,0,0,.924-2.555l-1.58-3.447a1.912,1.912,0,0,0-2.261-1.04,3.536,3.536,0,0,1-4.163-1.975,3.681,3.681,0,0,1,1.2-4.549,1.947,1.947,0,0,0,.658-2.4L40.1,1.12A1.91,1.91,0,0,0,39.009.114a1.878,1.878,0,0,0-1.463.07L33.571,2.069l.858,1.807Z"/><path d="M25,22h5a1,1,0,0,0,.734-1.679l-2.5-2.7,1.189-3.233a1,1,0,0,0-1.358-1.253l-2.9,1.34-2.5-2.221A1,1,0,0,0,21,13v3.382l-3.447,1.723a1,1,0,0,0,.2,1.865L21,20.781V23h2V20a1,1,0,0,0-.758-.97l-1.377-.344,1.582-.791A1,1,0,0,0,23,17V15.224L24.328,16.4a1,1,0,0,0,1.083.159l1.306-.6L26.149,17.5a1,1,0,0,0,.2,1.024L27.715,20H25Z"/></g></svg>