<svg xmlns="http://www.w3.org/2000/svg" viewBox="0 0 48 48"><title>09-gift card</title><g id="_09-gift_card" data-name="09-gift card"><circle cx="37" cy="26" r="2" style="fill:#fff"/><circle cx="41" cy="26" r="2" style="fill:#fff"/><path d="M5.57,19,4.31,20.97A2,2,0,0,0,6.15,24H7a2.139,2.139,0,0,0,1.29-.44L12,21V34H1V12a2.006,2.006,0,0,1,2-2h9v7L8.29,14.44A2.139,2.139,0,0,0,7,14H6.15a2,2,0,0,0-1.84,3.03Z" style="fill:#a672f1"/><path d="M22.43,19l1.26-1.97A2,2,0,0,0,21.85,14H21a2.139,2.139,0,0,0-1.29.44L16,17V10H45a2.006,2.006,0,0,1,2,2V34H16V21l3.71,2.56A2.139,2.139,0,0,0,21,24h.85a2,2,0,0,0,1.84-3.03ZM43,26a2,2,0,0,0-4,0,2,2,0,1,0-2,2,2.006,2.006,0,0,0,2-2,2,2,0,0,0,4,0Z" style="fill:#a672f1"/><path d="M12,34v4H3a2.006,2.006,0,0,1-2-2V34Z" style="fill:#f7f7ff"/><path d="M47,34v2a2.006,2.006,0,0,1-2,2H16V34Z" style="fill:#f7f7ff"/><polygon points="16 19 16 21 12 21 12 19 12 17 16 17 16 19" style="fill:#ffb844"/><path d="M23.69,20.97A2,2,0,0,1,21.85,24H21a2.139,2.139,0,0,1-1.29-.44L16,21V19h6.43Z" style="fill:#ffce54"/><polygon points="16 34 16 38 12 38 12 34 12 21 16 21 16 34" style="fill:#ffce54"/><path d="M12,19v2L8.29,23.56A2.139,2.139,0,0,1,7,24H6.15a2,2,0,0,1-1.84-3.03L5.57,19Z" style="fill:#ffce54"/><path d="M5.57,19,4.31,17.03C4.3,17.02,4.3,17.01,4.3,17H1v4H4.3c.006-.01.008-.02.014-.03Z" style="fill:#ffb844"/><path d="M47,17H23.7c-.006.01-.008.02-.014.03L22.43,19l1.26,1.97c.006.01.008.02.014.03H47Z" style="fill:#ffb844"/><path d="M1,34v2a2.006,2.006,0,0,0,2,2h9V36H3A2.006,2.006,0,0,1,1,34Z" style="fill:#e1e7f7"/><path d="M45,36H16v2H45a2.006,2.006,0,0,0,2-2V34A2.006,2.006,0,0,1,45,36Z" style="fill:#e1e7f7"/><path d="M1,14V12a2.006,2.006,0,0,1,2-2h9v2H3A2.006,2.006,0,0,0,1,14Z" style="fill:#b785ff"/><path d="M45,12H16V10H45a2.006,2.006,0,0,1,2,2v2A2.006,2.006,0,0,0,45,12Z" style="fill:#b785ff"/><rect x="12" y="10" width="4" height="7" style="fill:#ffce54"/><path d="M21.85,14a2,2,0,0,1,1.84,3.03L22.43,19H16V17l3.71-2.56A2.139,2.139,0,0,1,21,14Z" style="fill:#ffdf64"/><path d="M21.69,17.03,20.43,19h2l1.26-1.97A2,2,0,0,0,21.85,14H21a2.083,2.083,0,0,0-.546.08A1.962,1.962,0,0,1,21.69,17.03Z" style="fill:#fff978"/><path d="M22.43,19h-2l1.26,1.97a1.962,1.962,0,0,1-1.236,2.95A2.083,2.083,0,0,0,21,24h.85a2,2,0,0,0,1.84-3.03Z" style="fill:#ffdf64"/><path d="M21.85,24H21a2.139,2.139,0,0,1-1.29-.44L16,21v2l3.71,2.56A2.139,2.139,0,0,0,21,26h.85a2,2,0,0,0,1.855-3A2.155,2.155,0,0,1,21.85,24Z" style="fill:#8163ff"/><path d="M7,24H6.15A2.155,2.155,0,0,1,4.3,23,2,2,0,0,0,6.15,26H7a2.139,2.139,0,0,0,1.29-.44L12,23V21L8.29,23.56A2.139,2.139,0,0,1,7,24Z" style="fill:#8163ff"/><path d="M12,17v2H5.57L4.31,17.03A2,2,0,0,1,6.15,14H7a2.139,2.139,0,0,1,1.29.44Z" style="fill:#ffdf64"/><path d="M6.31,20.97,7.57,19h-2L4.31,20.97A2,2,0,0,0,6.15,24H7a2.083,2.083,0,0,0,.546-.08A1.962,1.962,0,0,1,6.31,20.97Z" style="fill:#ffdf64"/><path d="M6.31,17.03a1.962,1.962,0,0,1,1.236-2.95A2.083,2.083,0,0,0,7,14H6.15a2,2,0,0,0-1.84,3.03L5.57,19h2Z" style="fill:#fff978"/><path d="M4.3,17h-2c.006.01.008.02.014.03L3.57,19,2.31,20.97c-.006.01-.008.02-.014.03h2c.006-.01.008-.02.014-.03L5.57,19,4.31,17.03C4.3,17.02,4.3,17.01,4.3,17Z" style="fill:#ff942c"/><path d="M24.43,19l1.26-1.97c.006-.01.008-.02.014-.03h-2c-.006.01-.008.02-.014.03L22.43,19l1.26,1.97c.006.01.008.02.014.03h2c-.006-.01-.008-.02-.014-.03Z" style="fill:#ff942c"/><rect x="12" y="21" width="4" height="2" style="fill:#fea740"/><rect x="14" y="10" width="2" height="7" style="fill:#ffdf64"/><rect x="14" y="23" width="2" height="13" style="fill:#ffdf64"/><path d="M2.31,17.03C2.3,17.02,2.3,17.01,2.3,17H1v2H3.57Z" style="fill:#ffce54"/><path d="M24.43,19H47V17H25.7c-.006.01-.008.02-.014.03Z" style="fill:#ffce54"/><rect x="12" y="17" width="4" height="1" style="fill:#ffce54"/><path d="M20.682,13.5a.5.5,0,0,0,.5.5h15a.5.5,0,0,0,0-1h-15A.5.5,0,0,0,20.682,13.5Z" style="fill:#b785ff"/><path d="M37.682,13.5a.5.5,0,0,0,.5.5h1a.5.5,0,0,0,0-1h-1A.5.5,0,0,0,37.682,13.5Z" style="fill:#b785ff"/><ellipse cx="44.682" cy="13.708" rx="0.825" ry="1.148" transform="translate(3.401 35.624) rotate(-45.02)" style="fill:#f6fafd"/><ellipse cx="42.427" cy="13.208" rx="0.413" ry="0.574" transform="translate(3.094 33.883) rotate(-45.02)" style="fill:#f6fafd"/><rect x="28" y="9" width="2" height="2"/><path d="M45,9H32v2H45a1,1,0,0,1,1,1v4H26v2H46v2H26v2H46V33H19v2H46v1a1,1,0,0,1-1,1H17V22.9l2.1,1.444A3.111,3.111,0,0,0,21,25h.858a3.155,3.155,0,0,0,2.787-1.614,2.861,2.861,0,0,0-.109-2.955L23.614,19l.919-1.431a2.861,2.861,0,0,0,.109-2.955A3.155,3.155,0,0,0,21.855,13H21a3.052,3.052,0,0,0-1.851.621L17,15.1V11h9V9H3a3,3,0,0,0-3,3V36a3,3,0,0,0,3,3H45a3,3,0,0,0,3-3V12A3,3,0,0,0,45,9ZM5.15,16.488a.864.864,0,0,1-.036-.916A1.143,1.143,0,0,1,6.145,15H7a1.148,1.148,0,0,1,.718.268L11,17.526V18H6.121Zm0,5.024L6.121,20H11v.475L7.673,22.767A1.085,1.085,0,0,1,7,23H6.145a1.143,1.143,0,0,1-1.031-.572A.864.864,0,0,1,5.15,21.512ZM13,18h2v2H13Zm9.886,4.428A1.143,1.143,0,0,1,21.855,23H21a1.148,1.148,0,0,1-.718-.268L17,20.474V20h4.879l.971,1.512A.864.864,0,0,1,22.886,22.428Zm-2.559-7.195A1.085,1.085,0,0,1,21,15h.858a1.143,1.143,0,0,1,1.031.572.864.864,0,0,1-.036.916L21.879,18H17v-.475ZM15,16H13V11h2ZM2,36V35H9V33H2V12a1,1,0,0,1,1-1h8v4.1L8.9,13.655A3.111,3.111,0,0,0,7,13H6.145a3.155,3.155,0,0,0-2.787,1.614,2.861,2.861,0,0,0,.109,2.955L4.386,19l-.919,1.431a2.861,2.861,0,0,0-.109,2.955A3.155,3.155,0,0,0,6.145,25H7a3.052,3.052,0,0,0,1.851-.621L11,22.9V37H3A1,1,0,0,1,2,36Zm11,1V22h2V37Z"/><path d="M41,23a2.981,2.981,0,0,0-2,.78,3,3,0,1,0,0,4.44A3,3,0,1,0,41,23Zm-4,4a1,1,0,1,1,1-1A1,1,0,0,1,37,27Zm4,0a1,1,0,1,1,1-1A1,1,0,0,1,41,27Z"/><rect x="39" y="30" width="5" height="2"/><rect x="32" y="30" width="5" height="2"/></g></svg>