<?xml version="1.0" encoding="utf-8"?>
<!-- Generator: Adobe Illustrator 24.0.0, SVG Export Plug-In . SVG Version: 6.00 Build 0)  -->
<svg version="1.1" xmlns="http://www.w3.org/2000/svg" xmlns:xlink="http://www.w3.org/1999/xlink" x="0px" y="0px"
	 viewBox="0 0 256 256" enable-background="new 0 0 256 256" xml:space="preserve">
<g id="Layer_2">
</g>
<g id="Layer_1">
	<g>
	</g>
	<g>
		<g>
			<path fill="#72C2E9" d="M251.12,65.325v141.14c0,5.52-4.48,10-10,10h-47.97v-50.62c0-2.76-2.24-5-5-5H67.85c-2.76,0-5,2.23-5,5
				v50.62c-28.04,0-47.97,0-47.97,0c-5.52,0-10-4.48-10-10V65.325c0-5.52,4.48-10.01,10-10.01h226.24
				C246.64,55.315,251.12,59.805,251.12,65.325z"/>
			<polygon fill="#F0C020" points="154.667,105.023 128,69.458 101.333,105.023 117.212,105.023 117.212,126.125 138.788,126.125 
				138.788,105.023 			"/>
			<path fill="#FC5D3D" d="M171.825,26.649V55.32h-14.123V29.908H98.298V55.32H84.176V26.649c0-6,4.864-10.864,10.864-10.864h65.921
				C166.961,15.785,171.825,20.649,171.825,26.649z"/>
			<path fill="#7D7B79" d="M55.57,41.285H35.32c-2.761,0-5,2.239-5,5v9.035h30.25v-9.035C60.57,43.524,58.331,41.285,55.57,41.285z"
				/>
			<path fill="#7D7B79" d="M220.68,41.285h-20.25c-2.761,0-5,2.239-5,5v9.035h30.25v-9.035
				C225.68,43.524,223.441,41.285,220.68,41.285z"/>
			<polygon fill="#F0C020" points="234.862,130.981 215.408,105.598 195.955,130.981 207.539,130.981 207.539,166.193 
				223.278,166.193 223.278,130.981 			"/>
			<polygon fill="#F0C020" points="60.045,130.981 40.592,105.598 21.138,130.981 32.722,130.981 32.722,166.193 48.461,166.193 
				48.461,130.981 			"/>
			<path fill="#13BF6D" d="M193.15,165.845v69.37c0,2.76-2.23,5-5,5H67.85c-2.76,0-5-2.24-5-5v-69.37c0-2.77,2.24-5,5-5h120.3
				C190.91,160.845,193.15,163.085,193.15,165.845z"/>
			<path fill="#13BF6D" d="M193.15,148.175v17.67c0-2.76-2.24-5-5-5H67.85c-2.76,0-5,2.23-5,5v-17.67c0-2.77,2.24-5,5-5h120.3
				C190.91,143.175,193.15,145.415,193.15,148.175z"/>
			<path fill="#139C6E" d="M193.15,158.175v7.67c0-2.76-2.24-5-5-5H67.85c-2.76,0-5,2.23-5,5v-7.67c0-2.77,2.24-5,5-5h120.3
				C190.91,153.175,193.15,155.415,193.15,158.175z"/>
			<path fill="#76FFBB" d="M180.31,188.771v23.51c-0.376-0.037-0.762-0.055-1.147-0.055c-7.727,0-13.994,6.268-13.994,13.994
				c0,0.385,0.018,0.771,0.055,1.147h-74.44c0.037-0.376,0.055-0.762,0.055-1.147c0-7.727-6.268-13.994-13.994-13.994
				c-0.385,0-0.771,0.018-1.147,0.055v-23.51c0.376,0.037,0.762,0.055,1.147,0.055c7.727,0,13.994-6.268,13.994-13.994
				c0-0.385-0.018-0.771-0.055-1.147h74.44c-0.037,0.376-0.055,0.762-0.055,1.147c0,7.727,6.268,13.994,13.994,13.994
				C179.548,188.826,179.934,188.808,180.31,188.771z"/>
			<circle fill="#13BF6D" cx="128.004" cy="200.526" r="10.247"/>
		</g>
		<g>
			<g>
				<path fill="#C5E5FE" d="M62.85,207.966h-30c-1.381,0-2.5-1.119-2.5-2.5s1.119-2.5,2.5-2.5h30c1.381,0,2.5,1.119,2.5,2.5
					S64.231,207.966,62.85,207.966z M22.85,207.966h-4.52c-1.381,0-2.5-1.119-2.5-2.5s1.119-2.5,2.5-2.5h4.52
					c1.381,0,2.5,1.119,2.5,2.5S24.231,207.966,22.85,207.966z"/>
			</g>
			<g>
				<path fill="#C5E5FE" d="M241.33,207.966h-48.18c-1.381,0-2.5-1.119-2.5-2.5s1.119-2.5,2.5-2.5h45.68V66.326
					c0-1.381,1.119-2.5,2.5-2.5s2.5,1.119,2.5,2.5v139.14C243.83,206.847,242.711,207.966,241.33,207.966z"/>
			</g>
			<g>
				<path fill="#C5E5FE" d="M62.85,207.966h-30c-1.381,0-2.5-1.119-2.5-2.5s1.119-2.5,2.5-2.5h30c1.381,0,2.5,1.119,2.5,2.5
					S64.231,207.966,62.85,207.966z M22.85,207.966h-4.52c-1.381,0-2.5-1.119-2.5-2.5s1.119-2.5,2.5-2.5h4.52
					c1.381,0,2.5,1.119,2.5,2.5S24.231,207.966,22.85,207.966z"/>
			</g>
			<g>
				<path fill="#C5E5FE" d="M241.33,207.966h-48.18c-1.381,0-2.5-1.119-2.5-2.5s1.119-2.5,2.5-2.5h45.68V66.326
					c0-1.381,1.119-2.5,2.5-2.5s2.5,1.119,2.5,2.5v139.14C243.83,206.847,242.711,207.966,241.33,207.966z"/>
			</g>
			<path d="M136.288,105.024v21.102c0,1.381,1.119,2.5,2.5,2.5s2.5-1.119,2.5-2.5v-18.602h13.379c2.058,0,3.233-2.356,2-4
				L130,67.959c-0.998-1.333-3.003-1.331-4,0l-26.667,35.565c-1.235,1.647-0.055,4,2,4h13.379v18.602c0,1.381,1.119,2.5,2.5,2.5
				s2.5-1.119,2.5-2.5v-21.102c0-1.381-1.119-2.5-2.5-2.5h-10.88L128,73.626l21.667,28.898h-10.88
				C137.407,102.524,136.288,103.644,136.288,105.024z"/>
			<path d="M241.12,52.815h-12.94v-6.529c0-4.131-3.36-7.5-7.5-7.5h-20.25c-4.14,0-7.5,3.369-7.5,7.5v6.529h-18.61v-26.17
				c0-7.359-5.99-13.359-13.36-13.359h-8.8c-1.38,0-2.5,1.119-2.5,2.5c0,1.38,1.12,2.5,2.5,2.5h0.01h8.79
				c4.6,0.01,8.36,3.76,8.37,8.359v26.17h-9.13v-22.91c0-1.332-1.087-2.5-2.5-2.5H98.3c-1.413,0-2.5,1.168-2.5,2.5v22.91h-9.12
				v-26.17c0-4.6,3.76-8.35,8.36-8.359h37.11c1.38,0,2.5-1.12,2.5-2.5c0-1.381-1.12-2.5-2.5-2.5H95.04c-7.37,0-13.36,6-13.36,13.359
				v26.17H63.07v-6.529c0-4.131-3.37-7.5-7.5-7.5H35.32c-4.14,0-7.5,3.369-7.5,7.5v6.529H14.88c-6.89,0-12.5,5.62-12.5,12.511
				v141.14c0,6.89,5.61,12.5,12.5,12.5h45.47v16.248c0,4.136,3.364,7.5,7.5,7.5h120.3c4.136,0,7.5-3.364,7.5-7.5
				c0-5.55,0-9.748,0-16.248h45.47c6.89,0,12.5-5.61,12.5-12.5V65.326C253.62,58.436,248.01,52.815,241.12,52.815z M197.93,46.286
				c0-1.37,1.12-2.5,2.5-2.5h20.25c1.38,0,2.5,1.119,2.5,2.5v6.529h-25.25V46.286z M100.8,32.405h54.4v20.41h-54.4V32.405z
				 M32.82,46.286c0-1.381,1.12-2.5,2.5-2.5h20.25c1.38,0,2.5,1.13,2.5,2.5v6.529H32.82V46.286z M190.65,165.846
				c0,7.029,0,61.317,0,69.368c0,1.379-1.122,2.5-2.5,2.5H67.85c-1.378,0-2.5-1.121-2.5-2.5c0-12.716,0-63.565,0-69.37
				c0-1.379,1.122-2.5,2.5-2.5c4.028,0,115.898,0,120.3,0c1.378,0,2.5,1.121,2.5,2.5V165.846z M190.65,158.781
				c-0.783-0.278-1.622-0.438-2.5-0.438c-4.401,0-116.272,0-120.3,0c-0.878,0-1.717,0.159-2.5,0.438v-10.605
				c0-1.379,1.122-2.5,2.5-2.5h120.3c1.378,0,2.5,1.121,2.5,2.5V158.781z M248.62,206.466c-0.01,4.13-3.37,7.49-7.5,7.5h-45.47
				c0-5.86,0-54.367,0-65.79c0-4.136-3.364-7.5-7.5-7.5H67.85c-4.136,0-7.5,3.364-7.5,7.5c0,11.422,0,59.93,0,65.79H14.88
				c-4.13-0.01-7.49-3.37-7.5-7.5V65.326c0.01-4.131,3.37-7.5,7.5-7.511c12.602,0,212.926,0,226.24,0
				c4.13,0.011,7.49,3.38,7.5,7.511V206.466z"/>
			<circle cx="142.15" cy="15.786" r="2.5"/>
			<path d="M220.778,130.982v35.211c0,1.381,1.119,2.5,2.5,2.5s2.5-1.119,2.5-2.5v-32.711h9.083c2.067,0,3.243-2.378,1.984-4.021
				l-19.453-25.384c-1.001-1.306-2.969-1.304-3.969,0l-19.453,25.384c-1.258,1.641-0.085,4.021,1.984,4.021h9.083v32.711
				c0,1.381,1.119,2.5,2.5,2.5s2.5-1.119,2.5-2.5v-35.211c0-1.381-1.119-2.5-2.5-2.5h-6.518l14.388-18.773l14.388,18.773h-6.518
				C221.897,128.482,220.778,129.602,220.778,130.982z"/>
			<path d="M45.962,130.982v35.211c0,1.381,1.119,2.5,2.5,2.5s2.5-1.119,2.5-2.5v-32.711h9.083c2.067,0,3.243-2.378,1.984-4.021
				l-19.453-25.384c-1.001-1.306-2.969-1.304-3.969,0l-19.453,25.384c-1.258,1.641-0.085,4.021,1.984,4.021h9.083v32.711
				c0,1.381,1.119,2.5,2.5,2.5s2.5-1.119,2.5-2.5v-35.211c0-1.381-1.119-2.5-2.5-2.5h-6.518l14.388-18.773l14.388,18.773h-6.518
				C47.081,128.482,45.962,129.602,45.962,130.982z"/>
			<path d="M90.634,197.774v5.506c0,1.381,1.119,2.5,2.5,2.5s2.5-1.119,2.5-2.5v-5.506c0-1.381-1.119-2.5-2.5-2.5
				S90.634,196.394,90.634,197.774z"/>
			<path d="M165.375,203.28v-5.506c0-1.381-1.119-2.5-2.5-2.5s-2.5,1.119-2.5,2.5v5.506c0,1.381,1.119,2.5,2.5,2.5
				S165.375,204.661,165.375,203.28z"/>
			<path d="M180.07,186.286c-6.839,0.646-13.021-5.369-12.36-12.36c0.146-1.469-1.021-2.74-2.49-2.74H90.78
				c-1.446,0-2.629,1.248-2.48,2.74c0.529,7.401-5.77,12.983-12.36,12.36c-1.484-0.151-2.74,1.027-2.74,2.489v23.511
				c0,1.489,1.292,2.627,2.74,2.479c7.156-0.437,12.39,5.141,12.4,11.45c0,1-0.264,3.65,2.44,3.65h12.24c1.38,0,2.5-1.12,2.5-2.5
				c0-1.37-1.11-2.49-2.48-2.49c-0.01-0.01-0.01-0.01-0.02-0.01h-9.74c-0.642-8.037-7.082-14.442-15.08-15.08v-18.511
				c8.045-0.662,14.441-7.092,15.08-15.09h69.44c0.662,8.021,7.06,14.429,15.09,15.09v18.511c-7.996,0.638-14.426,7.033-15.09,15.08
				h-39.7c-1.38,0-2.5,1.119-2.5,2.5c0,1.38,1.12,2.5,2.5,2.5h42.2c1.466,0,2.637-1.269,2.49-2.74
				c-0.62-6.357,4.664-12.83,12.36-12.36c1.45,0.148,2.74-0.992,2.74-2.479v-23.511C182.81,187.315,181.556,186.135,180.07,186.286z
				"/>
			<circle cx="113.02" cy="227.366" r="2.5"/>
			<path d="M140.751,200.527c0-7.028-5.718-12.747-12.747-12.747s-12.747,5.719-12.747,12.747s5.718,12.747,12.747,12.747
				S140.751,207.556,140.751,200.527z M120.257,200.527c0-4.271,3.475-7.747,7.747-7.747s7.747,3.476,7.747,7.747
				s-3.475,7.747-7.747,7.747S120.257,204.799,120.257,200.527z"/>
		</g>
	</g>
</g>
</svg>
